<?xml version="1.0" standalone="no"?>
<!DOCTYPE svg PUBLIC "-//W3C//DTD SVG 20010904//EN"
 "http://www.w3.org/TR/2001/REC-SVG-20010904/DTD/svg10.dtd">
<svg version="1.0" xmlns="http://www.w3.org/2000/svg"
 width="128.000000pt" height="128.000000pt" viewBox="0 0 128.000000 128.000000"
 preserveAspectRatio="xMidYMid meet">

<g transform="translate(0.000000,128.000000) scale(0.100000,-0.100000)"
fill="#000000" stroke="none">
<path d="M325 1159 c-4 -5 -9 -24 -12 -41 -3 -23 -1 -28 9 -22 10 6 11 5 1 -7
-10 -12 -10 -18 0 -29 6 -7 7 -10 1 -7 -7 4 -11 -21 -12 -79 0 -62 3 -82 11
-77 7 4 6 -1 -2 -11 -12 -14 -12 -19 -2 -26 11 -6 11 -8 0 -12 -18 -7 -10 -15
24 -23 l27 -7 0 88 0 89 227 -2 c126 -2 231 -3 236 -3 13 0 8 -178 -5 -183
-10 -3 -10 -7 1 -20 9 -11 10 -17 2 -17 -6 0 -11 -4 -11 -10 0 -16 26 -11 43
8 15 16 17 45 17 198 0 127 -4 184 -12 192 -16 16 -534 17 -543 1z m539 -25
c3 -8 2 -12 -4 -9 -6 3 -10 10 -10 16 0 14 7 11 14 -7z m-501 -1 c-8 -2 -14
-25 -15 -51 -1 -45 -1 -46 -5 -8 -5 45 1 66 19 65 10 0 10 -2 1 -6z m105 0
c-15 -2 -42 -2 -60 0 -18 2 -6 4 27 4 33 0 48 -2 33 -4z m309 0 c-20 -2 -52
-2 -70 0 -17 2 0 4 38 4 39 0 53 -2 32 -4z m-24 -21 c53 -1 87 -6 87 -13 0 -5
-4 -7 -10 -4 -5 3 -10 -1 -10 -10 0 -9 5 -13 10 -10 6 3 10 1 10 -4 0 -12 -82
-16 -322 -16 l-148 0 0 30 0 30 148 0 c81 0 186 -1 235 -3z m-406 -234 c-2
-24 -4 -5 -4 42 0 47 2 66 4 43 2 -24 2 -62 0 -85z"/>
<path d="M520 1100 c0 -5 6 -11 13 -13 10 -4 10 -6 0 -6 -7 -1 -13 -5 -13 -10
0 -5 35 -9 78 -8 70 2 77 4 77 22 0 18 -7 20 -77 22 -43 1 -78 -2 -78 -7z"/>
<path d="M155 1035 c-44 -43 -35 -81 38 -153 34 -34 70 -62 80 -62 35 0 17 43
-43 106 -33 34 -60 68 -59 76 0 9 2 9 5 1 3 -7 12 -9 20 -6 9 3 29 -7 49 -27
35 -34 43 -32 43 13 -1 33 -48 77 -84 77 -14 0 -36 -11 -49 -25z m35 -5 c-8
-5 -19 -10 -25 -10 -5 0 -3 5 5 10 8 5 20 10 25 10 6 0 3 -5 -5 -10z m76 -47
c-3 -4 -6 -1 -6 6 0 7 -4 9 -10 6 -11 -7 -14 8 -3 19 4 3 11 -1 16 -9 5 -9 6
-19 3 -22z m-90 -25 c3 -4 -1 -5 -10 -4 -8 1 -18 5 -22 8 -3 4 1 5 10 4 8 -1
18 -5 22 -8z m45 -54 c2 1 12 -5 21 -15 35 -37 1 -26 -42 13 -30 26 -34 33
-14 19 17 -11 33 -19 35 -17z"/>
<path d="M566 893 c-3 -3 -37 -5 -76 -4 l-70 2 0 -65 c0 -55 3 -66 17 -66 9 0
13 -3 10 -7 -15 -14 18 -33 59 -33 23 0 46 -5 49 -10 5 -8 11 -7 21 1 7 6 11
16 7 22 -3 5 2 16 12 24 11 7 14 13 8 13 -6 0 -13 18 -15 40 -2 22 0 40 4 40
5 0 8 -15 8 -34 0 -18 6 -38 13 -43 16 -13 65 -15 72 -3 3 5 23 7 45 4 l40 -5
0 61 0 62 -65 -4 c-36 -1 -65 0 -65 5 0 16 -21 5 -30 -15 -6 -16 -9 -18 -9 -7
-1 17 -25 32 -35 22z m-9 -43 c-3 -14 0 -20 11 -20 8 0 13 -3 9 -6 -13 -14
-35 5 -30 25 3 12 8 21 10 21 3 0 3 -9 0 -20z m-42 -51 c-8 -12 -42 -12 -50 0
-3 5 5 11 17 13 28 5 40 0 33 -13z m215 0 c0 -12 -37 -12 -44 0 -7 11 14 20
32 13 6 -2 12 -8 12 -13z m-180 -40 c0 -5 4 -8 8 -5 4 2 8 -4 8 -14 0 -19 -1
-19 -21 0 -12 11 -34 20 -51 20 -23 0 -26 -2 -14 -11 12 -9 12 -10 1 -7 -8 3
-17 10 -19 16 -2 8 11 12 42 12 26 0 46 -5 46 -11z"/>
<path d="M821 834 c0 -11 3 -14 6 -6 3 7 2 16 -1 19 -3 4 -6 -2 -5 -13z"/>
<path d="M278 804 c-52 -28 -62 -77 -24 -113 l24 -22 -24 -24 c-29 -29 -30
-48 -3 -86 l20 -29 -20 -29 c-12 -16 -21 -37 -21 -46 0 -20 98 -125 116 -125
19 0 17 10 -3 27 -17 13 -17 13 2 5 11 -5 26 -8 33 -6 7 1 8 0 2 -3 -15 -7
-12 -23 5 -23 22 0 65 52 65 79 0 14 -9 35 -21 47 l-21 23 21 22 c16 17 18 25
9 31 -10 6 -9 8 2 8 12 0 13 2 1 9 -11 7 -11 9 0 14 10 4 7 12 -12 30 l-26 24
23 22 c26 25 32 51 12 51 -9 0 -8 3 2 10 12 8 8 16 -25 50 -38 39 -84 71 -102
70 -4 -1 -20 -7 -35 -16z m82 -79 c31 -31 34 -33 46 -17 7 9 14 13 14 8 0 -15
-32 -46 -48 -46 -8 0 -32 15 -52 34 -28 25 -35 37 -27 45 18 18 31 13 67 -24z
m39 9 c14 -12 -19 -1 -35 12 -18 14 -18 14 6 3 14 -6 27 -13 29 -15z m-119
-35 c0 -4 6 -6 13 -4 6 3 18 -5 26 -17 13 -21 13 -22 -2 -9 -15 12 -17 11 -18
-5 0 -14 -2 -15 -6 -4 -3 8 -15 25 -27 38 -17 19 -17 22 -3 16 9 -3 17 -10 17
-15z m7 -74 c-7 -7 -14 -9 -15 -4 -2 5 -9 6 -15 2 -7 -4 -7 0 1 9 8 9 20 14
27 12 11 -5 12 -9 2 -19z m70 -37 c18 -18 33 -38 33 -45 0 -7 4 -13 8 -13 5 0
9 -7 9 -16 0 -15 -1 -15 -12 0 -7 9 -19 16 -27 16 -20 0 -82 66 -74 79 12 18
28 13 63 -21z m53 -8 c0 -5 -5 -10 -11 -10 -5 0 -7 5 -4 10 3 6 8 10 11 10 2
0 4 -4 4 -10z m-123 -36 c2 -13 1 -15 -4 -4 -3 8 -11 19 -17 23 -7 6 -6 7 4 4
8 -2 16 -12 17 -23z m44 -37 c-10 -9 -11 -8 -5 6 3 10 9 15 12 12 3 -3 0 -11
-7 -18z m-46 -6 c-3 -6 -11 -11 -16 -11 -5 0 -4 6 3 14 14 16 24 13 13 -3z
m92 3 c-3 -3 -12 -4 -19 -1 -8 3 -5 6 6 6 11 1 17 -2 13 -5z m-25 -51 c22 -21
30 -24 42 -14 11 9 16 9 22 0 4 -7 3 -9 -4 -5 -16 10 -26 -13 -12 -29 6 -8 19
-11 28 -8 13 4 14 3 3 -5 -7 -5 -18 -16 -23 -23 -7 -11 -8 -9 -6 6 2 16 -2 19
-22 17 -18 -1 -36 8 -59 32 -51 52 -22 80 31 29z m-48 -33 c8 -8 6 -9 -8 -4
-13 5 -17 4 -12 -4 4 -7 13 -12 21 -12 8 0 17 -4 20 -10 13 -21 -16 -9 -47 20
-31 28 -32 29 -9 25 14 -3 29 -9 35 -15z"/>
<path d="M875 744 c-15 -14 -24 -33 -21 -41 3 -8 1 -11 -5 -8 -7 5 -10 -26 -8
-95 l2 -103 -29 -12 c-16 -6 -35 -19 -43 -28 -11 -14 -36 -17 -157 -17 l-144
0 0 -31 0 -31 68 2 c137 4 203 0 196 -11 -3 -6 0 -15 7 -20 12 -7 12 -10 1
-18 -8 -4 -12 -14 -10 -22 1 -8 -1 -15 -6 -16 -5 -1 -13 -7 -17 -15 -7 -10 -9
-10 -9 0 0 7 -13 12 -30 12 -16 0 -30 -4 -30 -9 0 -4 -18 -5 -40 -1 -27 5 -40
4 -40 -4 0 -6 -4 -5 -9 3 -7 11 -9 11 -14 0 -5 -12 -8 -11 -17 1 -9 11 -13 12
-17 3 -6 -15 -33 -17 -33 -3 0 6 -13 9 -30 8 -16 -1 -30 -7 -30 -13 0 -5 -4
-4 -9 4 -5 7 -13 11 -19 7 -5 -3 -12 0 -15 8 -3 7 -17 16 -31 18 -25 5 -26 3
-22 -30 2 -20 10 -40 18 -46 17 -12 444 -13 456 -2 4 4 5 36 4 71 -5 79 15
123 59 132 16 3 32 10 35 15 10 16 6 226 -5 247 -6 11 -7 22 -2 25 12 8 20 -4
14 -20 -3 -8 0 -14 6 -14 6 0 11 5 11 10 0 6 9 10 20 10 11 0 20 -4 20 -10 0
-5 1 -71 1 -146 0 -132 -1 -137 -27 -175 -15 -21 -31 -39 -35 -39 -23 0 -4
-41 46 -100 58 -67 71 -76 94 -61 16 11 3 38 -43 88 -17 19 -35 41 -39 49 -6
10 -16 13 -30 8 -17 -5 -14 1 13 24 19 17 37 28 40 26 3 -3 -3 -11 -13 -18
-19 -15 -22 -26 -7 -26 16 0 63 78 56 95 -3 9 -2 13 4 10 6 -4 10 37 10 114 0
86 -3 121 -12 124 -10 4 -10 6 0 6 20 1 14 18 -19 56 -32 36 -54 44 -62 23 -4
-10 -6 -10 -6 0 -1 19 -18 14 -46 -14z m-72 -310 c1 -4 -8 -9 -20 -10 -22 -4
-22 -3 -5 14 15 16 20 15 25 -4z m-36 -66 c-3 -8 -6 -5 -6 6 -1 11 2 17 5 13
3 -3 4 -12 1 -19z m190 -103 c0 -23 -12 -18 -25 10 -17 36 -15 41 6 22 10 -10
19 -24 19 -32z m-607 15 c0 -5 -2 -10 -4 -10 -3 0 -8 5 -11 10 -3 6 -1 10 4
10 6 0 11 -4 11 -10z m635 -48 c-9 -9 17 -32 28 -25 6 3 7 1 3 -5 -5 -9 -14
-7 -31 5 -28 21 -31 30 -10 30 8 0 13 -3 10 -5z"/>
<path d="M600 750 c-11 -7 -12 -11 0 -25 10 -13 15 -13 21 -3 7 10 9 9 9 -4 0
-12 -8 -18 -22 -18 -13 0 -30 0 -38 0 -8 0 -30 3 -47 6 -28 5 -33 3 -33 -12 0
-16 7 -19 39 -18 29 2 38 -2 37 -13 0 -9 5 -18 12 -20 9 -3 12 2 10 13 -2 16
5 19 45 22 26 2 47 7 47 13 0 5 -7 9 -15 9 -8 0 -15 7 -15 16 0 13 11 15 62
12 53 -3 63 0 66 15 3 14 -4 17 -35 17 -21 0 -52 -4 -69 -9 -17 -5 -37 -5 -45
0 -8 4 -21 4 -29 -1z m157 -6 c-3 -3 -12 -4 -19 -1 -8 3 -5 6 6 6 11 1 17 -2
13 -5z"/>
<path d="M694 695 c4 -24 3 -25 -45 -25 -50 0 -62 -13 -37 -38 9 -9 9 -12 0
-12 -15 0 -16 -36 -1 -46 6 -4 44 -7 83 -7 65 0 67 -1 14 -4 -76 -5 -75 -23 1
-23 l59 0 4 56 c1 31 -1 58 -5 61 -4 3 -3 11 4 19 19 23 -5 43 -32 26 -12 -8
-24 -11 -27 -8 -3 3 0 6 7 6 7 0 9 5 6 10 -13 21 -35 10 -31 -15z m-44 -66 c0
-11 -4 -18 -10 -14 -5 3 -7 12 -3 20 7 21 13 19 13 -6z"/>
<path d="M468 684 c-2 -42 -3 -48 -11 -60 -4 -7 0 -28 8 -48 15 -36 16 -36 75
-36 53 0 60 2 60 19 0 11 -4 22 -9 25 -5 3 -7 14 -4 24 3 12 -4 23 -21 31 -14
8 -23 18 -20 23 3 4 -6 8 -20 8 -14 0 -29 -7 -34 -16 -7 -12 -9 -8 -10 16 -1
41 -12 52 -14 14z m112 -114 c0 -5 -5 -10 -11 -10 -5 0 -7 5 -4 10 3 6 8 10
11 10 2 0 4 -4 4 -10z m-52 -7 c-10 -2 -26 -2 -35 0 -10 3 -2 5 17 5 19 0 27
-2 18 -5z"/>
<path d="M610 550 c0 -5 7 -10 15 -10 8 0 15 5 15 10 0 6 -7 10 -15 10 -8 0
-15 -4 -15 -10z"/>
<path d="M570 362 c-42 -34 1 -88 50 -62 26 14 23 47 -6 67 -19 12 -24 11 -44
-5z m50 -29 c0 -11 -3 -14 -8 -7 -4 6 -14 14 -22 17 -10 4 -8 6 8 6 15 1 22
-5 22 -16z m-30 -13 c0 -5 -2 -10 -4 -10 -3 0 -8 5 -11 10 -3 6 -1 10 4 10 6
0 11 -4 11 -10z"/>
<path d="M394 195 c-4 -9 7 -25 26 -42 41 -35 60 -46 60 -36 0 4 4 2 9 -6 10
-16 66 -17 129 -3 36 8 44 7 55 -7 17 -24 33 -32 51 -25 25 10 19 33 -17 69
-32 32 -34 33 -83 23 -75 -15 -125 -11 -149 12 -20 19 -45 27 -45 15 0 -3 12
-17 27 -31 14 -13 24 -26 21 -29 -8 -8 -69 55 -63 65 4 6 1 10 -5 10 -6 0 -13
-7 -16 -15z m309 -69 c15 -22 15 -24 -1 -21 -9 1 -16 9 -14 18 1 9 -6 17 -20
20 -22 4 -22 4 -2 6 13 0 28 -9 37 -23z"/>
</g>
</svg>
